#!OML:ASF F:\VICON\USERDATA\INSTALL\Justin_Nancy\Justin_Nancy.ASF
:FULLY-SPECIFIED
:DEGREES
316
root 3.23761 17.3039 8.13141 161.149 -82.3082 -155.63
lowerback 5.72612 0.330593 3.76748
upperback -0.0233664 0.727032 2.62326
thorax -3.22435 0.299426 0.533396
lowerneck -16.0163 -4.0714 -9.16449
upperneck 26.0915 -5.79005 7.25141
head 11.6509 -2.81124 3.34999
rclavicle -6.06293e-015 2.54444e-014
rhumerus -35.1885 -21.8097 -76.2607
rradius 28.1384
rwrist 13.284
rhand -14.3135 10.8633
rfingers 7.12502
rthumb 11.8268 -18.7827
lclavicle -6.06293e-015 2.54444e-014
lhumerus -27.5203 12.7781 79.737
lradius 28.8346
lwrist -7.01694
lhand -17.9488 27.1588
lfingers 7.12502
lthumb 8.31972 56.975
rfemur 6.14148 5.30054 28.6139
rtibia 32.6477
rfoot 4.96109 11.4797
rtoes 6.707
lfemur -31.2289 -2.83306 -14.537
ltibia 30.171
lfoot -3.73261 -4.20094
ltoes 3.26379
317
root 3.04168 17.356 8.19056 182.81 -80.5668 -178.576
lowerback 6.29971 1.25861 1.10245
upperback 0.310712 1.7792 1.35112
thorax -3.22042 0.868566 0.615099
lowerneck -15.541 -4.20617 -8.56009
upperneck 25.7072 -6.16955 7.24698
head 11.4236 -2.93199 3.18491
rclavicle -2.90723e-014 -2.78299e-015
rhumerus -36.0949 -23.22 -75.8053
rradius 27.8905
rwrist 12.894
rhand -14.6115 10.7709
rfingers 7.12502
rthumb 11.5394 -18.8915
lclavicle -2.90723e-014 -2.78299e-015
lhumerus -27.5756 11.7818 79.8034
lradius 28.9145
lwrist -6.89691
lhand -17.5046 27.1676
lfingers 7.12502
lthumb 8.74846 56.9663
rfemur 5.75869 6.73566 24.6418
rtibia 35.8723
rfoot 7.0446 12.8788
rtoes 5.04209
lfemur -28.2964 -3.02282 -17.9062
ltibia 29.6465
lfoot -4.71167 -2.42277
ltoes 4.96366
318
root 2.88937 17.377 8.21706 185.641 -80.4461 -181.651
lowerback 6.388 1.39398 0.699444
upperback 0.32751 1.92397 0.995259
thorax -3.25392 0.94572 0.459088
lowerneck -15.5097 -4.19197 -7.8482
upperneck 25.6037 -6.22668 6.86074
head 11.3438 -2.93367 2.90993
rclavicle -2.29596e-014 -2.38542e-015
rhumerus -36.8055 -24.6505 -75.2307
rradius 27.5632
rwrist 13.476
rhand -15.257 10.9955
rfingers 7.12502
rthumb 10.9169 -18.7007
lclavicle -2.29596e-014 -2.38542e-015
lhumerus -27.3734 11.214 79.9601
lradius 28.7252
lwrist -7.14814
lhand -16.8719 26.8129
lfingers 7.12502
lthumb 9.3589 56.5851
rfemur 4.05948 6.78954 23.8508
rtibia 39.1909
rfoot 8.80473 13.3859
rtoes 4.18295
lfemur -27.1016 -2.89314 -18.7534
ltibia 28.8152
lfoot -4.60906 -2.53783
ltoes 5.93036
319
root 2.73449 17.4047 8.25614 194.712 -79.4053 -191.297
lowerback 6.67205 1.55743 -0.938733
upperback 0.450398 2.00352 0.425905
thorax -3.32224 1.00611 0.777081
lowerneck -15.6943 -4.08454 -7.90842
upperneck 25.7204 -6.01421 6.74455
head 11.4042 -2.85355 2.90861
rclavicle -3.85642e-014 -1.98785e-015
rhumerus -37.0205 -24.9476 -74.7825
rradius 27.1337
rwrist 13.4268
rhand -15.1416 11.1239
rfingers 7.12502
rthumb 11.0281 -18.5664
lclavicle -3.85642e-014 -1.98785e-015
lhumerus -27.2147 10.3749 80.1797
lradius 28.6673
lwrist -6.33753
lhand -16.7654 26.7772
lfingers 7.12502
lthumb 9.4617 56.5448
rfemur 2.56671 7.42179 21.5639
rtibia 42.5572
rfoot 10.6893 13.9582
rtoes 4.23521
lfemur -25.2884 -3.04272 -20.9611
ltibia 27.6595
lfoot -4.45792 -1.55817
ltoes 6.58501
320
root 2.58829 17.4278 8.26987 199.759 -78.9462 -196.357
lowerback 6.4915 1.34504 -2.25741
upperback 0.335732 1.62447 0.334257
thorax -3.36592 0.838971 1.46096
lowerneck -15.5901 -3.87756 -8.47765
upperneck 25.777 -5.61336 6.87674
head 11.3918 -2.71783 3.11764
rclavicle -4.11981e-014 9.14409e-015
rhumerus -37.0279 -23.9825 -74.7023
rradius 26.5961
rwrist 13.0955
rhand -15.1055 11.1313
rfingers 7.12502
rthumb 11.063 -18.5571
lclavicle -4.11981e-014 9.14409e-015
lhumerus -27.4045 10.3594 80.302
lradius 28.7293
lwrist -5.61091
lhand -17.0913 26.9488
lfingers 7.12502
lthumb 9.14725 56.7304
rfemur 0.509369 7.73723 20.2402
rtibia 45.8936
rfoot 13.0922 13.8533
rtoes 6.31376
lfemur -24.29 -2.93504 -22.2802
ltibia 26.7175
lfoot -4.47733 -1.6962
ltoes 7.07081
321
root 2.43062 17.4519 8.28622 198.625 -79.3766 -194.907
lowerback 5.95813 1.06468 -1.99674
upperback 0.24725 1.28943 0.502542
thorax -3.14172 0.669727 1.52829
lowerneck -15.6922 -3.74822 -8.59867
upperneck 25.8307 -5.39868 6.91373
head 11.4174 -2.62703 3.18453
rclavicle -1.30701e-014 3.57812e-015
rhumerus -37.054 -23.8657 -74.6239
rradius 26.0974
rwrist 13.2558
rhand -14.4313 11.1703
rfingers 7.12502
rthumb 11.7132 -18.4823
lclavicle -1.30701e-014 3.57812e-015
lhumerus -27.2995 11.2906 80.205
lradius 28.5578
lwrist -6.50322
lhand -16.7606 26.8747
lfingers 7.12502
lthumb 9.46635 56.6421
rfemur -1.68514 7.5354 20.4082
rtibia 49.0342
rfoot 15.6659 13.2183
rtoes 10.2846
lfemur -23.6742 -2.80775 -22.1397
ltibia 25.8601
lfoot -4.53413 -2.43378
ltoes 6.80392
322
root 2.28351 17.4758 8.32941 202.65 -78.341 -199.638
lowerback 6.51007 1.19741 -3.13287
upperback 0.351142 1.35825 0.229184
thorax -3.3673 0.718625 1.86916
lowerneck -15.7763 -3.60761 -8.74836
upperneck 25.9149 -5.09077 6.70682
head 11.4363 -2.52661 3.17999
rclavicle 3.67752e-015 1.98785e-015
rhumerus -37.0183 -23.2296 -74.6649
rradius 25.7377
rwrist 12.2462
rhand -14.3277 11.2178
rfingers 7.12502
rthumb 11.8131 -18.429
lclavicle 3.67752e-015 1.98785e-015
lhumerus -27.2733 12.7849 80.0088
lradius 28.2287
lwrist -8.39441
lhand -15.8328 26.3093
lfingers 7.12502
lthumb 10.3615 56.034
rfemur -2.94767 8.02721 18.7746
rtibia 52.047
rfoot 17.84 13.0006
rtoes 13.2387
lfemur -22.0143 -2.64628 -23.7282
ltibia 25.2824
lfoot -4.88501 -1.9016
ltoes 7.03678
323
root 2.14493 17.4908 8.37213 202.634 -78.1744 -200.045
lowerback 6.99206 0.994801 -3.19132
upperback 0.353326 1.0684 0.310846
thorax -3.62163 0.579185 2.00778
lowerneck -15.8515 -3.39344 -8.92125
upperneck 26.0182 -4.64401 6.39739
head 11.4464 -2.38 3.16213
rclavicle -3.21037e-014 -1.19271e-015
rhumerus -36.75 -21.8532 -74.9556
rradius 25.2628
rwrist 11.2892
rhand -14.9529 11.3206
rfingers 7.12502
rthumb 11.2102 -18.3599
lclavicle -3.21037e-014 -1.19271e-015
lhumerus -27.3862 14.5459 79.6573
lradius 27.8642
lwrist -10.5545
lhand -13.9778 24.9941
lfingers 7.12502
lthumb 12.1505 54.6212
rfemur -4.29114 7.96772 18.4184
rtibia 54.7922
rfoot 19.5931 12.5925
rtoes 14.946
lfemur -20.8967 -2.31876 -24.2133
ltibia 25.0344
lfoot -5.24737 -1.99306
ltoes 7.42206
324
root 2.00496 17.5016 8.40248 201.088 -78.539 -198.67
lowerback 7.21257 0.584404 -2.88808
upperback 0.28654 0.549654 0.584934
thorax -3.78333 0.322382 2.17262
lowerneck -15.9108 -3.04618 -8.99694
upperneck 26.177 -4.0305 6.04794
head 11.4567 -2.15714 3.13821
rclavicle -4.87022e-015 -9.54166e-015
rhumerus -36.5003 -20.5493 -75.1987
rradius 24.8214
rwrist 11.9586
rhand -14.8515 11.2433
rfingers 7.12502
rthumb 11.308 -18.4318
lclavicle -4.87022e-015 -9.54166e-015
lhumerus -27.5794 14.779 79.9749
lradius 27.927
lwrist -9.24244
lhand -14.9843 25.522
lfingers 7.12502
lthumb 11.1799 55.2041
rfemur -5.74819 7.46502 18.7342
rtibia 57.3371
rfoot 20.4172 12.545
rtoes 13.0808
lfemur -20.0023 -2.14194 -24.0751
ltibia 24.673
lfoot -5.63853 -2.46718
ltoes 7.57556
325
root 1.86112 17.5163 8.39181 200.802 -78.9571 -198.097
lowerback 6.87387 0.356207 -3.01468
upperback 0.0464454 0.253354 0.733504
thorax -3.82607 0.184482 2.42915
lowerneck -15.5683 -2.88915 -8.91603
upperneck 26.0392 -3.80101 5.84988
head 11.309 -2.0754 3.08326
rclavicle -2.3059e-014 -1.98785e-015
rhumerus -36.8128 -20.415 -75.0532
rradius 24.5984
rwrist 13.6599
rhand -14.3674 11.1919
rfingers 7.12502
rthumb 11.7748 -18.4571
lclavicle -2.3059e-014 -1.98785e-015
lhumerus -27.7399 13.7547 80.3015
lradius 27.9299
lwrist -8.16408
lhand -15.8311 25.6035
lfingers 7.12502
lthumb 10.363 55.3281
rfemur -7.67272 6.93999 19.0547
rtibia 59.7349
rfoot 20.3941 12.0201
rtoes 10.3106
lfemur -19.7825 -1.99054 -23.9398
ltibia 24.5764
lfoot -5.96258 -2.98914
ltoes 8.39803
326
root 1.71509 17.5328 8.43978 200.551 -78.6848 -198.43
lowerback 7.59674 0.56141 -2.57745
upperback -0.0371048 0.527474 0.423384
thorax -4.32951 0.316461 1.82954
lowerneck -15.1308 -3.05712 -8.91091
upperneck 25.9418 -4.11691 5.94212
head 11.2146 -2.21616 3.07081
rclavicle 2.56432e-014 -6.75868e-015
rhumerus -37.594 -21.3093 -74.5958
rradius 24.5454
rwrist 15.3494
rhand -14.0312 11.1771
rfingers 7.12502
rthumb 12.0991 -18.4531
lclavicle 2.56432e-014 -6.75868e-015
lhumerus -27.7822 12.5839 80.5757
lradius 27.8208
lwrist -8.3305
lhand -16.075 25.8084
lfingers 7.12502
lthumb 10.1278 55.5446
rfemur -8.62041 6.89536 18.6119
rtibia 61.9821
rfoot 20.0704 10.452
rtoes 12.8244
lfemur -18.3099 -2.01293 -24.3534
ltibia 24.1564
lfoot -6.32849 -2.65844
ltoes 9.12724
327
root 1.58082 17.5489 8.44536 200.726 -79.0704 -198.239
lowerback 7.28765 0.462968 -2.4399
upperback -0.279139 0.418235 0.430531
thorax -4.4007 0.264433 1.77241
lowerneck -14.9058 -3.15455 -9.00772
upperneck 25.9089 -4.2687 5.98536
head 11.1746 -2.29495 3.08194
rclavicle 1.70955e-014 1.59028e-015
rhumerus -37.8594 -21.4031 -74.4245
rradius 24.4595
rwrist 15.9979
rhand -13.6835 11.2294
rfingers 7.12502
rthumb 12.4343 -18.3807
lclavicle 1.70955e-014 1.59028e-015
lhumerus -27.7263 13.5256 80.1737
lradius 27.4743
lwrist -10.9832
lhand -14.2464 25.3545
lfingers 7.12502
lthumb 11.8915 54.9968
rfemur -10.6807 6.53404 18.6817
rtibia 64.1442
rfoot 19.3138 8.53094
rtoes 17.1006
lfemur -18.1155 -1.81388 -24.324
ltibia 23.8413
lfoot -6.47759 -3.26972
ltoes 9.68443
328
root 1.4393 17.5596 8.49108 206.625 -78.3404 -204.653
lowerback 7.54844 0.395382 -3.64681
upperback -0.188506 0.195818 0.0897155
thorax -4.44701 0.175741 2.12198
lowerneck -15.0642 -3.06114 -9.31606
upperneck 26.0264 -4.00085 5.84448
head 11.2323 -2.22034 3.12184
rclavicle -1.64991e-014 1.98785e-015
rhumerus -37.4972 -19.8741 -74.8309
rradius 24.4514
rwrist 15.3483
rhand -13.6824 11.3886
rfingers 7.12502
rthumb 12.4353 -18.2215
lclavicle -1.64991e-014 1.98785e-015
lhumerus -27.7049 14.7579 79.8821
lradius 27.2423
lwrist -12.7682
lhand -12.7 24.589
lfingers 7.12502
lthumb 13.3824 54.1392
rfemur -11.92 5.83127 16.6702
rtibia 66.2381
rfoot 17.7247 9.02002
rtoes 17.5837
lfemur -16.7025 -1.82215 -26.2
ltibia 23.109
lfoot -6.81805 -3.03694
ltoes 9.00499
329
root 1.29399 17.5705 8.51514 203.023 -78.9896 -200.944
lowerback 7.29959 0.0882443 -2.67495
upperback -0.201429 -0.0991369 0.489677
thorax -4.30069 0.0114219 2.02283
lowerneck -15.2472 -2.92749 -9.47207
upperneck 26.1946 -3.63748 5.42844
head 11.2976 -2.12242 3.04788
rclavicle 1.96797e-014 0
rhumerus -37.3305 -18.7035 -75.0429
rradius 24.5945
rwrist 15.0988
rhand -13.4972 11.4676
rfingers 7.12502
rthumb 12.6139 -18.1316
lclavicle 1.96797e-014 0
lhumerus -27.6552 13.6558 80.9688
lradius 27.4389
lwrist -9.32289
lhand -16.9343 26.3248
lfingers 7.12502
lthumb 9.29878 56.0997
rfemur -13.4219 4.86724 17.539
rtibia 67.9984
rfoot 15.9737 9.07178
rtoes 17.5743
lfemur -15.9586 -1.79659 -25.4091
ltibia 22.5949
lfoot -7.09838 -3.35836
ltoes 8.7629
330
root 1.15694 17.5735 8.5281 207.271 -78.3806 -205.696
lowerback 7.59879 0.157655 -3.85623
upperback -0.136709 -0.136721 0.186994
thorax -4.39964 0.0150061 2.37865
lowerneck -15.2375 -2.8834 -9.28958
upperneck 26.282 -3.56828 5.19438
head 11.3147 -2.10525 2.9408
rclavicle 2.29596e-014 -7.15625e-015
rhumerus -37.4461 -18.4111 -75.1471
rradius 24.776
rwrist 15.3482
rhand -13.3531 11.243
rfingers 7.12502
rthumb 12.7528 -18.3475
lclavicle 2.29596e-014 -7.15625e-015
lhumerus -27.5315 12.5604 81.7292
lradius 27.5383
lwrist -6.91365
lhand -21.5053 28.637
lfingers 7.12502
lthumb 4.88642 58.5607
rfemur -14.6199 4.51462 16.0856
rtibia 69.7921
rfoot 14.0472 8.48442
rtoes 17.8835
lfemur -14.5523 -1.71873 -26.7534
ltibia 21.8347
lfoot -7.18914 -3.22319
ltoes 9.70496
